<svg width="50" height="50" viewBox="0 0 50 50" fill="none" xmlns="http://www.w3.org/2000/svg">
<rect x="35" y="12" width="12" height="37" stroke="#121212" stroke-width="2"/>
<rect x="19" y="25" width="12" height="24" stroke="#121212" stroke-width="2"/>
<rect x="3" y="36" width="12" height="13" stroke="#121212" stroke-width="2"/>
<path d="M22.753 7.74679C22.753 7.19451 22.3053 6.74679 21.753 6.74679H12.753C12.2007 6.74679 11.753 7.19451 11.753 7.74679C11.753 8.29908 12.2007 8.74679 12.753 8.74679H20.753V16.7468C20.753 17.2991 21.2007 17.7468 21.753 17.7468C22.3053 17.7468 22.753 17.2991 22.753 16.7468V7.74679ZM2.95369 27.9603L22.4601 8.4539L21.0459 7.03969L1.53948 26.5461L2.95369 27.9603Z" fill="#121212"/>
</svg>
