<svg width="58" height="64" viewBox="0 0 58 64" fill="none" xmlns="http://www.w3.org/2000/svg">
<g clip-path="url(#clip0_301_376)">
<g filter="url(#filter0_d_301_376)">
<path fill-rule="evenodd" clip-rule="evenodd" d="M36.5138 50.2282C36.7545 49.9221 37.078 49.6906 37.442 49.5467C46.2013 46.0841 52.3897 37.6135 52.3897 27.7133C52.3897 14.7327 41.7515 4.20996 28.6287 4.20996C15.5058 4.20996 4.86768 14.7327 4.86768 27.7133C4.86768 37.6135 11.0561 46.0841 19.8154 49.5467C20.1794 49.6906 20.5029 49.9221 20.7435 50.2282L26.9669 58.1429C27.8098 59.2148 29.4476 59.2148 30.2905 58.1429L36.5138 50.2282Z" fill="#205BF1"/>
</g>
<path fill-rule="evenodd" clip-rule="evenodd" d="M35.8795 45.6793C43.0942 42.8273 48.1792 35.8526 48.1792 27.7133C48.1792 17.0329 39.4261 8.37482 28.6287 8.37482C17.8313 8.37482 9.0782 17.0329 9.0782 27.7133C9.0782 35.8526 14.1632 42.8273 21.3779 45.6793C22.3835 46.0768 23.3339 46.7387 24.0671 47.6712L28.6287 53.4725L33.1903 47.6712C33.9235 46.7387 34.8739 46.0768 35.8795 45.6793ZM37.442 49.5467C37.078 49.6906 36.7545 49.9221 36.5138 50.2282L30.2905 58.1429C29.4476 59.2148 27.8098 59.2148 26.9669 58.1429L20.7435 50.2282C20.5029 49.9221 20.1794 49.6906 19.8154 49.5467C11.0561 46.0841 4.86768 37.6135 4.86768 27.7133C4.86768 14.7327 15.5058 4.20996 28.6287 4.20996C41.7515 4.20996 52.3897 14.7327 52.3897 27.7133C52.3897 37.6135 46.2013 46.0841 37.442 49.5467Z" fill="white"/>
<path d="M41.8384 25.5995C41.9818 26.3928 42.0535 27.1974 42.0525 28.0035C42.0525 31.0474 41.0177 34.0009 39.118 36.3793C37.2183 38.7576 34.5665 40.4196 31.5979 41.0923C28.6293 41.7651 25.5201 41.4088 22.7806 40.0818C20.0412 38.7548 17.8342 36.536 16.5219 33.7895C15.2095 31.043 14.8698 27.932 15.5584 24.967C16.247 22.002 17.9231 19.3591 20.3116 17.4722C22.7001 15.5852 25.659 14.5662 28.7029 14.5824C31.7468 14.5986 34.6947 15.649 37.063 17.5613L34.4519 19.4859C32.5467 18.1839 30.2604 17.5575 27.9576 17.7065C25.6549 17.8555 23.4684 18.7713 21.7469 20.308C20.0254 21.8446 18.868 23.9135 18.4595 26.1846C18.051 28.4557 18.4148 30.7982 19.4929 32.8384C20.5709 34.8786 22.3012 36.4991 24.4077 37.4412C26.5141 38.3834 28.8754 38.5929 31.1149 38.0365C33.3544 37.4801 35.343 36.1898 36.7636 34.3713C38.1842 32.5529 38.9548 30.311 38.9527 28.0035V27.7289L41.8384 25.5995Z" fill="white"/>
<path d="M40.8611 22.467C40.431 21.5183 39.8913 20.6232 39.253 19.8001L28.6339 27.6172L23.5257 24.4242V28.2758L28.6339 31.478L40.8611 22.467Z" fill="white"/>
</g>
<defs>
<filter id="filter0_d_301_376" x="-1.13232" y="-0.790039" width="59.522" height="66.7368" filterUnits="userSpaceOnUse" color-interpolation-filters="sRGB">
<feFlood flood-opacity="0" result="BackgroundImageFix"/>
<feColorMatrix in="SourceAlpha" type="matrix" values="0 0 0 0 0 0 0 0 0 0 0 0 0 0 0 0 0 0 127 0" result="hardAlpha"/>
<feOffset dy="1"/>
<feGaussianBlur stdDeviation="3"/>
<feComposite in2="hardAlpha" operator="out"/>
<feColorMatrix type="matrix" values="0 0 0 0 0.12549 0 0 0 0 0.356863 0 0 0 0 0.945098 0 0 0 1 0"/>
<feBlend mode="normal" in2="BackgroundImageFix" result="effect1_dropShadow_301_376"/>
<feBlend mode="normal" in="SourceGraphic" in2="effect1_dropShadow_301_376" result="shape"/>
</filter>
<clipPath id="clip0_301_376">
<rect width="57.2632" height="64" fill="white"/>
</clipPath>
</defs>
</svg>
