<svg width="40" height="44" viewBox="0 0 40 44" fill="none" xmlns="http://www.w3.org/2000/svg">
<g filter="url(#filter0_d_65_3804)">
<path fill-rule="evenodd" clip-rule="evenodd" d="M25.1853 33.8636C25.3475 33.6572 25.5656 33.5011 25.811 33.4041C31.7165 31.0697 35.8887 25.3589 35.8887 18.6841C35.8887 9.93277 28.7165 2.83838 19.8691 2.83838C11.0218 2.83838 3.84961 9.93277 3.84961 18.6841C3.84961 25.3589 8.0218 31.0697 13.9273 33.4041C14.1727 33.5011 14.3908 33.6572 14.553 33.8636L18.7488 39.1996C19.317 39.9223 20.4213 39.9223 20.9895 39.1996L25.1853 33.8636Z" fill="url(#paint0_linear_65_3804)"/>
<path d="M25.6272 32.9391C25.3062 33.066 25.0135 33.2731 24.7922 33.5545L20.5965 38.8905C20.2284 39.3586 19.5099 39.3586 19.1418 38.8905L14.9461 33.5545C14.7248 33.2731 14.4321 33.066 14.1111 32.9391C8.38747 30.6766 4.34961 25.1442 4.34961 18.6841C4.34961 10.214 11.2928 3.33838 19.8691 3.33838C28.4455 3.33838 35.3887 10.214 35.3887 18.6841C35.3887 25.1442 31.3508 30.6766 25.6272 32.9391Z" stroke="#D0D7DD" stroke-linecap="round" stroke-linejoin="round"/>
</g>
<path fill-rule="evenodd" clip-rule="evenodd" d="M24.7576 30.7967C29.6217 28.8739 33.0499 24.1717 33.0499 18.6841C33.0499 11.4835 27.1487 5.6463 19.8691 5.6463C12.5896 5.6463 6.68832 11.4835 6.68832 18.6841C6.68832 24.1717 10.1166 28.8739 14.9807 30.7967C15.6587 31.0647 16.2994 31.511 16.7938 32.1397L19.8691 36.0508L22.9445 32.1397C23.4389 31.511 24.0796 31.0647 24.7576 30.7967ZM25.811 33.4041C25.5656 33.5011 25.3475 33.6572 25.1853 33.8636L20.9895 39.1996C20.4213 39.9223 19.317 39.9223 18.7488 39.1996L14.553 33.8636C14.3908 33.6572 14.1727 33.5011 13.9273 33.4041C8.0218 31.0697 3.84961 25.3589 3.84961 18.6841C3.84961 9.93277 11.0218 2.83838 19.8691 2.83838C28.7165 2.83838 35.8887 9.93277 35.8887 18.6841C35.8887 25.3589 31.7165 31.0697 25.811 33.4041Z" fill="white"/>
<path d="M28.7749 17.259C28.8716 17.7938 28.9199 18.3362 28.9193 18.8797C28.9192 20.9319 28.2216 22.9232 26.9408 24.5266C25.6601 26.1301 23.8723 27.2506 21.8708 27.7042C19.8694 28.1577 17.7732 27.9175 15.9263 27.0229C14.0794 26.1282 12.5914 24.6323 11.7067 22.7806C10.8219 20.929 10.5928 18.8315 11.0571 16.8325C11.5214 14.8336 12.6514 13.0518 14.2617 11.7796C15.872 10.5074 17.8669 9.82039 19.919 9.8313C21.9712 9.84222 23.9587 10.5504 25.5554 11.8397L23.795 13.1372C22.5105 12.2594 20.9691 11.8371 19.4166 11.9376C17.8641 12.038 16.39 12.6555 15.2293 13.6915C14.0687 14.7274 13.2884 16.1223 13.013 17.6534C12.7376 19.1846 12.9828 20.7639 13.7097 22.1394C14.4365 23.5149 15.6031 24.6074 17.0232 25.2426C18.4434 25.8778 20.0354 26.0191 21.5452 25.6439C23.055 25.2688 24.3958 24.3989 25.3535 23.1729C26.3112 21.9469 26.8308 20.4355 26.8294 18.8797V18.6946L28.7749 17.259Z" fill="white"/>
<path d="M28.116 15.1471C27.826 14.5075 27.4622 13.904 27.0318 13.349L19.8725 18.6193L16.4286 16.4666V19.0633L19.8725 21.2222L28.116 15.1471Z" fill="white"/>
<defs>
<filter id="filter0_d_65_3804" x="0.849609" y="0.838379" width="38.0391" height="42.9032" filterUnits="userSpaceOnUse" color-interpolation-filters="sRGB">
<feFlood flood-opacity="0" result="BackgroundImageFix"/>
<feColorMatrix in="SourceAlpha" type="matrix" values="0 0 0 0 0 0 0 0 0 0 0 0 0 0 0 0 0 0 127 0" result="hardAlpha"/>
<feOffset dy="1"/>
<feGaussianBlur stdDeviation="1.5"/>
<feComposite in2="hardAlpha" operator="out"/>
<feColorMatrix type="matrix" values="0 0 0 0 0 0 0 0 0 0 0 0 0 0 0 0 0 0 0.18 0"/>
<feBlend mode="normal" in2="BackgroundImageFix" result="effect1_dropShadow_65_3804"/>
<feBlend mode="normal" in="SourceGraphic" in2="effect1_dropShadow_65_3804" result="shape"/>
</filter>
<linearGradient id="paint0_linear_65_3804" x1="39.742" y1="2.83877" x2="19.8711" y2="39.742" gradientUnits="userSpaceOnUse">
<stop stop-color="#29C766"/>
<stop offset="0.416667" stop-color="#BDE21E"/>
<stop offset="1" stop-color="#FAED00"/>
</linearGradient>
</defs>
</svg>
