<svg width="50" height="50" viewBox="0 0 50 50" fill="none" xmlns="http://www.w3.org/2000/svg">
<g clip-path="url(#clip0_318_1608)">
<path d="M1 42.4139V7.58923L12.0673 12.9015L12.5 13.1092L12.9327 12.9015L25 7.10923L37.0673 12.9015L37.5 13.1092L37.9327 12.9015L49 7.58923V43.3708L37.5355 48.8737L25.4886 42.1275L25 41.8539L24.5114 42.1275L12.5 48.8539L1 42.4139Z" stroke="#121212" stroke-width="2"/>
<path d="M34.364 3.63604C36.0518 5.32387 37 7.61305 37 10C37 16.1377 34.5618 22.024 30.2218 26.364L28.0218 28.564L25.1535 25.5165C21.2009 21.3169 19 15.7671 19 10C19 7.61305 19.9482 5.32387 21.636 3.63604C23.3239 1.94821 25.6131 1 28 1C30.3869 1 32.6761 1.94821 34.364 3.63604Z" fill="white" stroke="#121212" stroke-width="2"/>
<circle cx="28" cy="11" r="4" fill="white" stroke="#121212" stroke-width="2"/>
</g>
<defs>
<clipPath id="clip0_318_1608">
<rect width="50" height="50" fill="white"/>
</clipPath>
</defs>
</svg>
