<svg width="50" height="50" viewBox="0 0 50 50" fill="none" xmlns="http://www.w3.org/2000/svg">
<rect x="2" y="5" width="46" height="38" stroke="#121212" stroke-width="2"/>
<rect x="7" y="10" width="22" height="28" stroke="#121212" stroke-width="2"/>
<line x1="34" y1="5" x2="34" y2="43" stroke="#121212" stroke-width="2"/>
<line x1="29" y1="6" x2="29" y2="44" stroke="#121212" stroke-width="2"/>
<path fill-rule="evenodd" clip-rule="evenodd" d="M43.9999 10L33.9999 5L33.1055 6.78885L41.9999 11.2361V16H43.9999V10Z" fill="#121212"/>
<path fill-rule="evenodd" clip-rule="evenodd" d="M33.8944 43L43.8944 38L43 36.2111L33 41.2111L33.8944 43Z" fill="#121212"/>
<path d="M44 24C44 26.975 43.67 29.6323 43.1566 31.5151C42.8979 32.4636 42.6076 33.1589 42.3273 33.5937C42.1686 33.8397 42.0562 33.9402 42 33.9798C41.9438 33.9402 41.8314 33.8397 41.6727 33.5937C41.3924 33.1589 41.1021 32.4636 40.8434 31.5151C40.33 29.6323 40 26.975 40 24C40 21.025 40.33 18.3677 40.8434 16.4849C41.1021 15.5364 41.3924 14.8411 41.6727 14.4063C41.8314 14.1603 41.9438 14.0597 42 14.0202C42.0562 14.0597 42.1686 14.1603 42.3273 14.4063C42.6076 14.8411 42.8979 15.5364 43.1566 16.4849C43.67 18.3677 44 21.025 44 24Z" stroke="#121212" stroke-width="2"/>
<path d="M45 24C45 25.5793 44.7852 26.9675 44.4655 27.9264C44.3066 28.4031 44.1392 28.7206 44 28.9006C43.8608 28.7206 43.6934 28.4031 43.5345 27.9264C43.2148 26.9675 43 25.5793 43 24C43 22.4207 43.2148 21.0325 43.5345 20.0736C43.6934 19.5969 43.8608 19.2794 44 19.0994C44.1392 19.2794 44.3066 19.5969 44.4655 20.0736C44.7852 21.0325 45 22.4207 45 24ZM43.8799 29.0259C43.8799 29.0257 43.8821 29.0241 43.8865 29.0218C43.8821 29.025 43.8799 29.0261 43.8799 29.0259ZM44.1135 29.0218C44.1179 29.0241 44.1201 29.0257 44.1201 29.0259C44.1201 29.0261 44.1179 29.025 44.1135 29.0218ZM44.1201 18.9741C44.1201 18.9743 44.1179 18.9759 44.1135 18.9782C44.1179 18.975 44.1201 18.9739 44.1201 18.9741ZM43.8865 18.9782C43.8821 18.9759 43.8799 18.9743 43.8799 18.9741C43.8799 18.9739 43.8821 18.975 43.8865 18.9782Z" stroke="#121212" stroke-width="2"/>
<line x1="43" y1="32" x2="43" y2="38" stroke="#121212" stroke-width="2"/>
<line x1="38" y1="45" x2="43" y2="45" stroke="#121212" stroke-width="2"/>
<line x1="7" y1="45" x2="12" y2="45" stroke="#121212" stroke-width="2"/>
</svg>
